<svg width="220" height="64" viewBox="0 0 220 64" fill="none" xmlns="http://www.w3.org/2000/svg">
<path d="M9.74865 10.4653H0.733765V19.4802H9.74865V10.4653Z" fill="#D42027"/>
<path d="M18.7639 19.5117H9.74899V28.5266H18.7639V19.5117Z" fill="#D42027"/>
<path d="M27.7786 10.4653H18.7637V19.4802H27.7786V10.4653Z" fill="#D42027"/>
<path d="M9.74865 28.5271H0.733765V37.542H9.74865V28.5271Z" fill="#D42027"/>
<path d="M27.7786 36.8093H18.7637V45.8242H27.7786V36.8093Z" fill="#D42027"/>
<path d="M18.7639 45.8228H9.74899V54.8376H18.7639V45.8228Z" fill="#D42027"/>
<path d="M27.7786 54.8379H18.7637V63.8528H27.7786V54.8379Z" fill="#D42027"/>
<path d="M36.825 19.5117H27.8102V63.8853H36.825V19.5117Z" fill="#D42027"/>
<path d="M98.0501 10.4653H36.8254V63.8538H98.0501V10.4653Z" fill="#D42027"/>
<path fill-rule="evenodd" clip-rule="evenodd" d="M88.3353 20.2444C88.6323 20.4619 88.8836 20.7358 89.0747 21.0504C89.2659 21.3651 89.3932 21.7143 89.4494 22.0781C89.5056 22.442 89.4896 22.8133 89.4023 23.1709C89.315 23.5286 89.1581 23.8655 88.9405 24.1625L82.1555 33.4004C81.9673 33.7428 81.709 34.0415 81.3973 34.277C81.0856 34.5125 80.7277 34.6795 80.3469 34.7669C79.9662 34.8544 79.5712 34.8603 79.188 34.7844C78.8048 34.7085 78.442 34.5524 78.1233 34.3264C77.8047 34.1004 77.5374 33.8096 77.3391 33.4731C77.1407 33.1365 77.0157 32.7619 76.9724 32.3736C76.929 31.9854 76.9682 31.5924 77.0873 31.2203C77.2065 30.8483 77.403 30.5057 77.6639 30.2149L84.449 20.9771C84.8684 20.366 85.5126 19.9459 86.2409 19.8086C86.9692 19.6713 87.7222 19.828 88.3353 20.2444ZM71.2612 22.5061C71.2612 22.1422 71.1895 21.7818 71.0502 21.4455C70.9109 21.1093 70.7068 20.8038 70.4494 20.5465C70.1921 20.2891 69.8866 20.085 69.5503 19.9457C69.2141 19.8064 68.8537 19.7347 68.4898 19.7347C68.1258 19.7347 67.7655 19.8064 67.4292 19.9457C67.093 20.085 66.7875 20.2891 66.5301 20.5465C66.2728 20.8038 66.0686 21.1093 65.9294 21.4455C65.7901 21.7818 65.7184 22.1422 65.7184 22.5061V33.719C65.7184 34.454 66.0104 35.1589 66.5301 35.6786C67.0499 36.1983 67.7548 36.4903 68.4898 36.4903C69.2248 36.4903 69.9297 36.1983 70.4494 35.6786C70.9692 35.1589 71.2612 34.454 71.2612 33.719V22.5061ZM46.2871 19.7029C45.5992 19.7765 44.9629 20.1019 44.5004 20.6165C44.038 21.131 43.7822 21.7984 43.7822 22.4902C43.7822 23.182 44.038 23.8493 44.5004 24.3639C44.9629 24.8784 45.5992 25.2038 46.2871 25.2775H52.658C53.3459 25.2038 53.9822 24.8784 54.4446 24.3639C54.907 23.8493 55.1628 23.182 55.1628 22.4902C55.1628 21.7984 54.907 21.131 54.4446 20.6165C53.9822 20.1019 53.3459 19.7765 52.658 19.7029H46.2871ZM46.2871 38.8157C45.552 38.8157 44.8471 39.1077 44.3274 39.6274C43.8077 40.1472 43.5157 40.8521 43.5157 41.5871C43.5157 42.3221 43.8077 43.027 44.3274 43.5467C44.8471 44.0664 45.552 44.3584 46.2871 44.3584H52.658C53.393 44.3584 54.0979 44.0664 54.6176 43.5467C55.1374 43.027 55.4294 42.3221 55.4294 41.5871C55.4294 40.8521 55.1374 40.1472 54.6176 39.6274C54.0979 39.1077 53.393 38.8157 52.658 38.8157H46.2871ZM71.2612 37.6371C71.2695 36.8992 71.5686 36.1943 72.0934 35.6755C72.6182 35.1566 73.3264 34.8657 74.0644 34.8657H74.8607C75.5957 34.8657 76.3006 35.1577 76.8204 35.6774C77.3401 36.1972 77.6321 36.9021 77.6321 37.6371C77.6321 38.3721 77.3401 39.077 76.8204 39.5967C76.3006 40.1165 75.5957 40.4084 74.8607 40.4084H74.0644C73.6935 40.4085 73.3264 40.3349 72.9842 40.1921C72.642 40.0492 72.3316 39.8399 72.0708 39.5762C71.8101 39.3125 71.6043 38.9997 71.4653 38.6559C71.3263 38.3121 71.2569 37.9442 71.2612 37.5734V37.6371ZM42.5919 25.7234C42.5919 24.9884 42.2999 24.2835 41.7802 23.7638C41.2605 23.244 40.5556 22.9521 39.8206 22.9521C39.0855 22.9521 38.3806 23.244 37.8609 23.7638C37.3412 24.2835 37.0492 24.9884 37.0492 25.7234V36.9044C37.0492 37.6394 37.3412 38.3444 37.8609 38.8641C38.3806 39.3838 39.0855 39.6758 39.8206 39.6758C40.5556 39.6758 41.2605 39.3838 41.7802 38.8641C42.2999 38.3444 42.5919 37.6394 42.5919 36.9044V25.7234ZM58.8697 22.9521C59.6047 22.9521 60.3096 23.244 60.8293 23.7638C61.349 24.2835 61.641 24.9884 61.641 25.7234V36.9044C61.5674 37.5923 61.242 38.2286 60.7274 38.691C60.2129 39.1534 59.5455 39.4092 58.8537 39.4092C58.1619 39.4092 57.4946 39.1534 56.98 38.691C56.4655 38.2286 56.1401 37.5923 56.0664 36.9044V25.6597C56.0658 25.282 56.1424 24.9081 56.2916 24.561C56.4407 24.214 56.6592 23.9011 56.9336 23.6415C57.2081 23.382 57.5327 23.1813 57.8876 23.0518C58.2424 22.9223 58.62 22.8666 58.9971 22.8884L58.8697 22.9521ZM77.5365 44.3266C77.3207 44.0347 77.165 43.7028 77.0785 43.3502C76.992 42.9976 76.9765 42.6314 77.0328 42.2728C77.0891 41.9141 77.2162 41.5703 77.4066 41.2611C77.5969 40.952 77.8468 40.6838 78.1418 40.4722C78.4343 40.2538 78.767 40.0954 79.1209 40.006C79.4748 39.9166 79.8429 39.8981 80.204 39.9513C80.5651 40.0046 80.9122 40.1287 81.2252 40.3165C81.5382 40.5043 81.811 40.752 82.028 41.0455L88.7494 50.2515C88.9652 50.5434 89.1209 50.8753 89.2074 51.2279C89.2938 51.5805 89.3094 51.9467 89.2531 52.3054C89.1967 52.664 89.0697 53.0079 88.8793 53.317C88.689 53.6261 88.4391 53.8943 88.1441 54.106C87.5504 54.5387 86.8106 54.7211 86.0838 54.6139C85.3569 54.5066 84.7013 54.1184 84.2579 53.5326L77.5365 44.3266ZM68.3624 38.8157C69.0974 38.8157 69.8023 39.1077 70.322 39.6274C70.8417 40.1472 71.1337 40.8521 71.1337 41.5871V51.908C71.1337 52.643 70.8417 53.3479 70.322 53.8676C69.8023 54.3874 69.0974 54.6793 68.3624 54.6793C67.6274 54.6793 66.9225 54.3874 66.4027 53.8676C65.883 53.3479 65.591 52.643 65.591 51.908V41.5234C65.5906 41.1484 65.6663 40.7773 65.8135 40.4325C65.9606 40.0877 66.1763 39.7763 66.4472 39.5173C66.7182 39.2582 67.039 39.0568 67.3901 38.9252C67.7411 38.7937 68.1153 38.7348 68.4898 38.752L68.3624 38.8157ZM42.7193 43.2754C42.7193 42.5404 42.4273 41.8354 41.9076 41.3157C41.3879 40.796 40.683 40.504 39.948 40.504C39.213 40.504 38.508 40.796 37.9883 41.3157C37.4686 41.8354 37.1766 42.5404 37.1766 43.2754V52.0036C37.1766 52.7386 37.4686 53.4435 37.9883 53.9632C38.508 54.4829 39.213 54.7749 39.948 54.7749C40.683 54.7749 41.3879 54.4829 41.9076 53.9632C42.4273 53.4435 42.7193 52.7386 42.7193 52.0036V43.2754Z" fill="white"/>
<g opacity="0.55">
<path d="M115.124 20.9768C120.603 20.9768 123.343 24.1623 123.343 28.0486C123.379 29.5213 122.903 30.9609 121.997 32.1225C121.091 33.2841 119.811 34.0958 118.374 34.4195L123.661 43.2751H117.482L112.831 34.8017H111.525V43.2751H106.046V20.9768H115.124ZM114.806 25.5002H111.525V31.0747H114.901C116.94 31.0747 117.896 30.0235 117.896 28.2715C117.896 26.5195 116.94 25.4683 114.901 25.4683L114.806 25.5002Z" fill="black"/>
<path d="M126.879 20.9768H141.468V25.3409H132.326V30.0873H139.175V34.3239H132.326V43.2751H126.879V20.9768Z" fill="black"/>
<path d="M147.169 27.9515C146.164 27.9586 145.183 27.6462 144.366 27.0596V43.2736H149.813V27.3463C149.006 27.7909 148.09 28.0005 147.169 27.9515Z" fill="black"/>
<path d="M173.928 32.1571C173.969 33.6831 173.688 35.2007 173.103 36.6107C172.518 38.0208 171.643 39.2918 170.533 40.3408C169.424 41.3897 168.107 42.1932 166.666 42.6986C165.226 43.2041 163.695 43.4003 162.174 43.2744H153.764V20.9761H162.174C163.702 20.8443 165.24 21.0385 166.687 21.5459C168.135 22.0532 169.458 22.8622 170.569 23.9192C171.68 24.9763 172.554 26.2572 173.133 27.6774C173.712 29.0975 173.983 30.6244 173.928 32.1571ZM161.823 38.528C162.677 38.5951 163.535 38.4764 164.338 38.1799C165.142 37.8835 165.871 37.4164 166.477 36.8109C167.082 36.2053 167.55 35.4757 167.846 34.6723C168.142 33.8689 168.261 33.0108 168.194 32.1571C168.274 31.2918 168.166 30.4195 167.876 29.6001C167.587 28.7806 167.124 28.0335 166.519 27.41C165.913 26.7866 165.18 26.3015 164.37 25.9882C163.559 25.6749 162.69 25.5408 161.823 25.595H159.243V38.6236L161.823 38.528Z" fill="black"/>
</g>
<path d="M152.14 19.6074C151.803 19.6101 151.471 19.5267 151.176 19.365C150.88 19.2033 150.631 18.9688 150.452 18.6836C150.07 18.2012 149.586 17.8085 149.036 17.5333C148.486 17.2581 147.882 17.1071 147.266 17.0908C146.599 17.0809 145.939 17.2252 145.336 17.5125C144.734 17.7998 144.206 18.2224 143.794 18.7473C143.481 19.1764 143.013 19.4664 142.49 19.5556C141.966 19.6449 141.428 19.5263 140.991 19.2251C140.773 19.0752 140.586 18.8835 140.442 18.6612C140.298 18.4389 140.2 18.1902 140.152 17.9296C140.105 17.6691 140.11 17.4017 140.166 17.1429C140.223 16.8841 140.33 16.6391 140.481 16.4219C141.268 15.3915 142.279 14.5545 143.439 13.9748C144.598 13.3951 145.875 13.0881 147.171 13.0772C148.467 13.0754 149.745 13.3839 150.898 13.9769C152.05 14.5698 153.044 15.43 153.797 16.4856C153.944 16.7085 154.045 16.9586 154.094 17.2211C154.143 17.4836 154.14 17.7534 154.083 18.0144C154.027 18.2755 153.919 18.5227 153.766 18.7415C153.613 18.9604 153.417 19.1464 153.191 19.2888C152.88 19.4973 152.514 19.6082 152.14 19.6074Z" fill="#5A96A0"/>
<path d="M159.306 18.2375C158.884 18.2392 158.472 18.1078 158.129 17.8619C157.786 17.6159 157.529 17.2681 157.395 16.8677C156.455 14.9672 155.003 13.3672 153.201 12.2486C151.4 11.13 149.322 10.5372 147.202 10.5372C145.081 10.5372 143.003 11.13 141.202 12.2486C139.401 13.3672 137.948 14.9672 137.008 16.8677C136.818 17.3474 136.45 17.7353 135.98 17.9507C135.511 18.1661 134.977 18.1924 134.489 18.0243C134.001 17.8562 133.597 17.5064 133.36 17.0478C133.123 16.5892 133.072 16.057 133.217 15.5617C134.432 12.8652 136.399 10.5766 138.882 8.9712C141.366 7.36577 144.26 6.51172 147.218 6.51172C150.175 6.51172 153.069 7.36577 155.553 8.9712C158.036 10.5766 160.004 12.8652 161.218 15.5617C161.391 16.0687 161.358 16.6238 161.126 17.1067C160.893 17.5896 160.48 17.9615 159.975 18.1419C159.758 18.2049 159.533 18.2371 159.306 18.2375Z" fill="#5A96A0"/>
<path d="M166.092 17.0911C165.671 17.0881 165.261 16.9548 164.919 16.7096C164.576 16.4643 164.319 16.1191 164.18 15.7214C162.866 12.3108 160.549 9.37826 157.536 7.30999C154.522 5.24172 150.953 4.1347 147.297 4.1347C143.642 4.1347 140.073 5.24172 137.059 7.30999C134.046 9.37826 131.729 12.3108 130.414 15.7214C130.332 15.973 130.2 16.2057 130.027 16.4061C129.854 16.6066 129.643 16.7707 129.406 16.8892C129.169 17.0076 128.911 17.078 128.646 17.0963C128.382 17.1145 128.117 17.0803 127.866 16.9956C127.363 16.8213 126.948 16.4571 126.71 15.9809C126.472 15.5047 126.429 14.9542 126.592 14.4472C128.17 10.2296 130.998 6.59439 134.698 4.028C138.399 1.46161 142.794 0.0864258 147.297 0.0864258C151.801 0.0864258 156.196 1.46161 159.897 4.028C163.597 6.59439 166.425 10.2296 168.003 14.4472C168.088 14.6981 168.122 14.9634 168.104 15.2276C168.085 15.4918 168.015 15.7498 167.897 15.9867C167.778 16.2236 167.614 16.4347 167.414 16.6079C167.213 16.781 166.98 16.9128 166.729 16.9956C166.523 17.061 166.308 17.0933 166.092 17.0911Z" fill="#5A96A0"/>
<path d="M147.139 25.3405C148.775 25.3405 150.101 24.0141 150.101 22.378C150.101 20.7419 148.775 19.4155 147.139 19.4155C145.503 19.4155 144.176 20.7419 144.176 22.378C144.176 24.0141 145.503 25.3405 147.139 25.3405Z" fill="#5A96A0"/>
<path d="M217.006 56.3288V61.3694H215.467V52.1001H217.006V53.6055C217.53 52.5737 218.528 51.9309 220 51.9309V53.5209H219.594C218.122 53.5209 217.006 54.1806 217.006 56.3288Z" fill="black" fill-opacity="0.5"/>
<path d="M208.918 53.2502C207.412 53.2502 206.161 54.2482 205.992 56.0581H211.844C211.861 54.2482 210.508 53.2502 208.918 53.2502ZM213.248 58.5107C212.774 60.2022 211.286 61.5216 208.986 61.5216C206.347 61.5216 204.402 59.6609 204.402 56.7177C204.402 53.7915 206.279 51.9478 208.986 51.9478C211.675 51.9478 213.434 53.8422 213.434 56.3794C213.434 56.7177 213.417 56.9884 213.383 57.3098H205.975C206.093 59.1873 207.412 60.2191 208.986 60.2191C210.373 60.2191 211.252 59.5087 211.59 58.5107H213.248Z" fill="black" fill-opacity="0.5"/>
<path d="M196.272 61.3695V48.8525H197.811V56.2105L201.38 52.1002H203.528L199.164 56.7179L203.545 61.3695H201.448L197.811 57.2761V61.3695H196.272Z" fill="black" fill-opacity="0.5"/>
<path d="M185.422 56.7177C185.422 53.8084 187.3 51.9478 189.939 51.9478C192.239 51.9478 193.745 53.1318 194.218 55.077H192.561C192.239 53.9606 191.309 53.2502 189.939 53.2502C188.247 53.2502 186.996 54.4512 186.996 56.7177C186.996 59.0182 188.247 60.2191 189.939 60.2191C191.309 60.2191 192.222 59.5594 192.561 58.3923H194.218C193.745 60.236 192.239 61.5216 189.939 61.5216C187.3 61.5216 185.422 59.6609 185.422 56.7177Z" fill="black" fill-opacity="0.5"/>
<path d="M173.992 56.7008C173.992 53.8084 175.903 51.9478 178.39 51.9478C180.115 51.9478 181.299 52.8273 181.84 53.7915V52.1H183.397V61.3693H181.84V59.644C181.282 60.642 180.081 61.5216 178.373 61.5216C175.903 61.5216 173.992 59.5764 173.992 56.7008ZM181.84 56.7177C181.84 54.5696 180.386 53.284 178.694 53.284C177.003 53.284 175.565 54.5188 175.565 56.7008C175.565 58.8828 177.003 60.1684 178.694 60.1684C180.386 60.1684 181.84 58.8998 181.84 56.7177Z" fill="black" fill-opacity="0.5"/>
<path d="M169.796 56.3288V61.3694H168.257V52.1001H169.796V53.6055C170.321 52.5737 171.319 51.9309 172.79 51.9309V53.5209H172.384C170.913 53.5209 169.796 54.1806 169.796 56.3288Z" fill="black" fill-opacity="0.5"/>
<path d="M162.434 58.8322V53.3687H161.233V52.1001H162.434V49.7659H163.973V52.1001H166.392V53.3687H163.973V58.8322C163.973 59.7456 164.312 60.067 165.259 60.067H166.392V61.3695H165.005C163.364 61.3695 162.434 60.6929 162.434 58.8322Z" fill="black" fill-opacity="0.5"/>
<path d="M151.762 58.8322V53.3687H150.561V52.1001H151.762V49.7659H153.302V52.1001H155.72V53.3687H153.302V58.8322C153.302 59.7456 153.64 60.067 154.587 60.067H155.72V61.3695H154.333C152.693 61.3695 151.762 60.6929 151.762 58.8322Z" fill="black" fill-opacity="0.5"/>
<path d="M146.653 56.3288V61.3694H145.114V52.1001H146.653V53.6055C147.178 52.5737 148.176 51.9309 149.647 51.9309V53.5209H149.241C147.77 53.5209 146.653 54.1806 146.653 56.3288Z" fill="black" fill-opacity="0.5"/>
<path d="M133.108 56.7008C133.108 53.8084 135.019 51.9478 137.506 51.9478C139.231 51.9478 140.415 52.8273 140.956 53.7915V52.1H142.513V61.3693H140.956V59.644C140.398 60.642 139.197 61.5216 137.489 61.5216C135.019 61.5216 133.108 59.5764 133.108 56.7008ZM140.956 56.7177C140.956 54.5696 139.502 53.284 137.81 53.284C136.119 53.284 134.681 54.5188 134.681 56.7008C134.681 58.8828 136.119 60.1684 137.81 60.1684C139.502 60.1684 140.956 58.8998 140.956 56.7177Z" fill="black" fill-opacity="0.5"/>
<path d="M129.637 61.3694V56.1258C129.637 54.2313 128.622 53.2672 127.099 53.2672C125.543 53.2672 124.478 54.2652 124.478 56.2611V61.3694H122.955V56.1258C122.955 54.2313 121.94 53.2672 120.418 53.2672C118.862 53.2672 117.796 54.2652 117.796 56.2611V61.3694H116.257V52.1001H117.796V53.4363C118.405 52.4553 119.505 51.9309 120.723 51.9309C122.245 51.9309 123.513 52.6075 124.122 53.9945C124.664 52.6582 125.983 51.9309 127.404 51.9309C129.518 51.9309 131.159 53.2503 131.159 55.9059V61.3694H129.637Z" fill="black" fill-opacity="0.5"/>
<path d="M113.992 58.1548C113.992 59.8294 112.622 61.487 110.068 61.487C107.7 61.487 106.025 60.1677 105.991 58.2225H107.632C107.734 59.2035 108.427 60.1846 110.068 60.1846C111.556 60.1846 112.436 59.3389 112.436 58.2225C112.436 55.0425 106.059 57.0723 106.059 52.6913C106.059 50.7461 107.632 49.4268 109.966 49.4268C112.216 49.4268 113.688 50.6615 113.874 52.4545H112.182C112.081 51.6595 111.336 50.763 109.899 50.7461C108.63 50.7123 107.632 51.372 107.632 52.6406C107.632 55.6853 113.992 53.7908 113.992 58.1548Z" fill="black" fill-opacity="0.5"/>
</svg>
